Coordinates
version=1
nRows=4
nColumns=40
inDegrees=yes

Units are S.I. units (second, meters, Newtons, ...)
If the header above contains a line with 'inDegrees', this indicates whether rotational values are in degrees (yes) or radians (no).

endheader
time	pelvis_tilt	pelvis_list	pelvis_rotation	pelvis_tx	pelvis_ty	pelvis_tz	hip_flexion_r	hip_adduction_r	hip_rotation_r	knee_angle_r	knee_angle_r_beta	ankle_angle_r	subtalar_angle_r	mtp_angle_r	hip_flexion_l	hip_adduction_l	hip_rotation_l	knee_angle_l	knee_angle_l_beta	ankle_angle_l	subtalar_angle_l	mtp_angle_l	lumbar_extension	lumbar_bending	lumbar_rotation	arm_flex_r	arm_add_r	arm_rot_r	elbow_flex_r	pro_sup_r	wrist_flex_r	wrist_dev_r	arm_flex_l	arm_add_l	arm_rot_l	elbow_flex_l	pro_sup_l	wrist_flex_l	wrist_dev_l
      6.53500000000000014211	     -5.40741806868004815101	     -4.43709934084818602429	   -178.84888350610358997983	      0.27445213533087542412	      0.79762177102592168865	     -0.96173623958084586416	      0.42672252459877968445	    -37.91964075679671708485	    -39.62996513316266344873	      7.17246481894694909442	      0.12518312657408323108	    -20.12616734659238915128	      0.00000000000000000000	      0.00000000000000000000	      1.05972781354660705588	    -26.92522267691351700591	    -38.84626173538795512741	      5.17903351965537073198	      0.09039118698913668759	    -20.31952132748995509814	      0.00000000000000000000	      0.00000000000000000000	    -18.68642355856299275274	     -1.75384140066435922911	      1.53153729295211182837	     21.40612967317425585634	     -7.25038031108503933098	     15.10045675760932937237	      3.17443067793344946281	     83.55684150437809876166	      0.00000000000000000000	      0.00000000000000000000	     15.49467875152626028523	     -5.19640818865835196760	     17.61196995501513740123	      3.54135455821566003110	     20.67610427180885324105	      0.00000000000000000000	      0.00000000000000000000
      6.54000000000000003553	     -5.49312860698521365777	     -4.41025247603033765387	   -178.81747271684446332074	      0.27461950535322532385	      0.79755639793024268869	     -0.96172300740908567285	      0.32909256812591769492	    -37.90460788812234227407	    -39.63003774392959854822	      7.21704589660328998946	      0.12596121316327366091	    -20.09812060063158511980	      0.00000000000000000000	      0.00000000000000000000	      0.99668649878917958684	    -26.95813330547859720809	    -38.83732156227492993139	      5.17482588783412911226	      0.09031774996014432788	    -20.28305846744867579901	      0.00000000000000000000	      0.00000000000000000000	    -18.67493731653653199487	     -1.70849793384943171581	      1.57329917388340945195	     21.39270330606949954699	     -7.28122401665596719056	     15.07921031054411642458	      3.14909266451190372749	     83.55056517130441307017	      0.00000000000000000000	      0.00000000000000000000	     15.40586981526160670342	     -5.13577779371199394376	     17.60372194637093201663	      3.53229373573452498647	     20.64454216311527900984	      0.00000000000000000000	      0.00000000000000000000
      6.54499999999999992895	     -5.69817442831378784263	     -4.32127871292521170687	   -178.85042179114370242132	      0.27481457548298643401	      0.79768833562319918506	     -0.96192400546346035206	      0.17634959617546178134	    -37.82675268604702978337	    -39.62987138267317277496	      7.34371947742319353125	      0.12817208422387210698	    -19.94889241209903829599	      0.00000000000000000000	      0.00000000000000000000	      0.73485471159771154070	    -27.05013568323448325259	    -38.86957086815748141362	      5.07912807506677133063	      0.08864750804039686627	    -20.32639167996873297284	      0.00000000000000000000	      0.00000000000000000000	    -18.81984959185769668011	     -1.61664665486493808189	      1.70344008435506344412	     21.38902299984214394613	     -7.32527309312698005073	     15.00467222370289377409	      3.09234650868143345903	     83.52722097023139724570	      0.00000000000000000000	      0.00000000000000000000	     15.40992690308793555687	     -5.05996716504621790733	     17.61990739814294570920	      3.56080974580764220150	     20.48652975993676861322	      0.00000000000000000000	      0.00000000000000000000
      6.54999999999999982236	     -5.73402785825630623151	     -4.35240978790589672087	   -178.77355510897140788984	      0.27502782262765762544	      0.79749753814366630689	     -0.96187571347464984051	      0.08712971710977063244	    -37.85603533253421204563	    -39.63457608337490967187	      7.31661965812434456069	      0.12769910315041169135	    -19.93203029211485599603	      0.00000000000000000000	      0.00000000000000000000	      0.77617148058278195855	    -27.03556939451045337819	    -38.80039196684595026454	      5.11832591111529033867	      0.08933163933910044652	    -20.32496009974337880521	      0.00000000000000000000	      0.00000000000000000000	    -18.77625876741193522435	     -1.62380569664969653942	      1.65723389913144014685	     21.38991444710517342287	     -7.34661280063701571663	     14.98793257360931718836	      3.09982337118402195841	     83.52421127683318502477	      0.00000000000000000000	      0.00000000000000000000	     15.37372258958329673817	     -5.02406256285253682847	     17.61611310271000618854	      3.55487329408230534611	     20.46939348353336640685	      0.00000000000000000000	      0.00000000000000000000
